<svg id="Слой_1" data-name="Слой 1" xmlns="http://www.w3.org/2000/svg" viewBox="0 0 1256.29 417.99">
    <defs>
        <style>
            .cls-1{fill:#e3e3d7;}.cls-2,.cls-3{fill:none;stroke:#e3e3d7;stroke-miterlimit:10;}.cls-2{stroke-width:9.29px;}.cls-3{stroke-width:6.84px;}
        </style>
    </defs>
    <path class="cls-1"
          d="M1452.87,340.6a33.69,33.69,0,0,1,33.65,33.65V706.37A33.69,33.69,0,0,1,1452.87,740h-987a33.69,33.69,0,0,1-33.65-33.65V374.25a33.69,33.69,0,0,1,33.65-33.65h987m0-9.29h-987A42.94,42.94,0,0,0,423,374.25V706.37a42.94,42.94,0,0,0,42.94,42.93h987a42.94,42.94,0,0,0,42.94-42.93V374.25a42.94,42.94,0,0,0-42.94-42.94Z"
          transform="translate(-331.36 -331.31)"/>
    <path class="cls-1"
          d="M1438.46,368.46a17.89,17.89,0,0,1,17.87,17.87v308a17.89,17.89,0,0,1-17.87,17.87H480.3a17.89,17.89,0,0,1-17.87-17.87V386.33a17.89,17.89,0,0,1,17.87-17.87h958.16m0-9.28H480.3a27.15,27.15,0,0,0-27.16,27.15v308a27.16,27.16,0,0,0,27.16,27.16h958.16a27.16,27.16,0,0,0,27.16-27.16V386.33a27.15,27.15,0,0,0-27.16-27.15Z"
          transform="translate(-331.36 -331.31)"/>
    <polyline class="cls-2" points="82.84 270.69 44.1 270.35 44.1 147.3 82.84 147.3"/>
    <polyline class="cls-2" points="44.1 208.91 4.64 208.52 4.64 179.1 21.67 179.1"/>
    <polyline class="cls-3" points="1172.69 147.3 1211.43 147.64 1211.43 270.69 1172.69 270.69"/>
    <polyline class="cls-2" points="1212.18 211.61 1251.64 212.01 1251.64 241.42 1234.62 241.42"/>
    <path class="cls-1"
          d="M605.24,365.18l352,350.26H934.09l-352-350.26h23.13m2.47-6H567.58l364,362.26h40.13l-364-362.26Z"
          transform="translate(-331.36 -331.31)"/>
    <path class="cls-1"
          d="M565.1,365.18l352,350.26h-74.4l-352-350.26h74.4m2.48-6H480.3a27.05,27.05,0,0,0-3.85.27l363.76,362h91.41l-364-362.26Z"
          transform="translate(-331.36 -331.31)"/>
    <path class="cls-1"
          d="M643.73,365.18l352,350.26H974.23l-352-350.26h21.48m2.47-6H607.71l364,362.26h38.49l-364-362.26Z"
          transform="translate(-331.36 -331.31)"/>
    <path class="cls-1"
          d="M474.5,366,825.67,715.44H804.19L462.3,375.22A21.24,21.24,0,0,1,474.5,366m1.95-6.53a27.21,27.21,0,0,0-21.44,17l346.71,345h38.49l-363.76-362Z"
          transform="translate(-331.36 -331.31)"/>
    <path class="cls-1" d="M735.13,365.18l352,350.26h-74.4l-352-350.26h74.39m2.48-6H646.2l364,362.26h91.41l-364-362.26Z"
          transform="translate(-331.36 -331.31)"/>
    <path class="cls-1" d="M459.14,428.94l287.91,286.5h-74.4L459.14,503v-74m-6-14.43v91l217,216h91.41L453.14,414.51Z"
          transform="translate(-331.36 -331.31)"/>
    <path class="cls-1"
          d="M459.14,389l328,326.44H764.06L459.14,412V389M455,376.43a27.15,27.15,0,0,0-1.87,9.9v28.18L761.58,721.44h40.14L455,376.43Z"
          transform="translate(-331.36 -331.31)"/>
    <path class="cls-1"
          d="M459.14,558.21l158,157.23H594L459.14,581.22v-23m-6-14.44v39.94l138.4,137.73h40.14L453.14,543.77Z"
          transform="translate(-331.36 -331.31)"/>
    <path class="cls-1"
          d="M459.14,598.15,577,715.44H480.3a21.18,21.18,0,0,1-21.16-21.16V598.15m-6-14.44V694.28a27.16,27.16,0,0,0,27.16,27.16H591.54L453.14,583.71Z"
          transform="translate(-331.36 -331.31)"/>
    <path class="cls-1"
          d="M459.14,519.9l196.5,195.54H634.16l-175-174.16V519.9m-6-14.43v38.3L631.68,721.44h38.49l-217-216Z"
          transform="translate(-331.36 -331.31)"/>
    <path class="cls-1"
          d="M775.27,365.18l352,350.26h-23.12l-352-350.26h23.12m2.48-6H737.61l364,362.26h40.14l-364-362.26Z"
          transform="translate(-331.36 -331.31)"/>
    <path class="cls-1"
          d="M1245.24,365.18,1459.62,578.5v74L1170.85,365.18h74.39m2.48-6h-91.41L1465.62,667V576l-217.9-216.83Z"
          transform="translate(-331.36 -331.31)"/>
    <path class="cls-1"
          d="M1438.46,365.18a21.18,21.18,0,0,1,21.16,21.15v97L1340.88,365.18h97.58m0-6H1326.35l139.27,138.59V386.33a27.15,27.15,0,0,0-27.16-27.15Z"
          transform="translate(-331.36 -331.31)"/>
    <path class="cls-1"
          d="M1323.87,365.18l135.75,135.08v21.37L1302.39,365.18h21.48m2.48-6h-38.49l177.76,176.89v-38.3L1326.35,359.18Z"
          transform="translate(-331.36 -331.31)"/>
    <path class="cls-1"
          d="M1285.38,365.18l174.24,173.38v23L1262.26,365.18h23.12m2.48-6h-40.14L1465.62,576V536.07L1287.86,359.18Z"
          transform="translate(-331.36 -331.31)"/>
    <path class="cls-1"
          d="M813.76,365.18l352,350.26h-21.47l-352-350.26h21.48m2.48-6H777.75l364,362.26h38.49l-364-362.26Z"
          transform="translate(-331.36 -331.31)"/>
    <path class="cls-1"
          d="M1153.83,365.18l305.79,304.28v21.38L1132.36,365.18h21.47m2.48-6h-38.49L1464,703.63a27.32,27.32,0,0,0,1.65-9.35V667L1156.31,359.18Z"
          transform="translate(-331.36 -331.31)"/>
    <path class="cls-1"
          d="M945.31,365.18l352,350.26h-23.12l-352-350.26h23.13m2.47-6H907.65l364,362.26h40.14l-364-362.26Z"
          transform="translate(-331.36 -331.31)"/>
    <path class="cls-1"
          d="M905.17,365.18l352,350.26h-74.39l-352-350.26h74.4m2.48-6H816.24l364,362.26h91.41l-364-362.26Z"
          transform="translate(-331.36 -331.31)"/>
    <path class="cls-1"
          d="M983.8,365.18l352,350.26H1314.3l-352-350.26H983.8m2.47-6H947.78l364,362.26h38.49l-364-362.26Z"
          transform="translate(-331.36 -331.31)"/>
    <path class="cls-1"
          d="M1115.34,365.18l341.41,339.73a21.42,21.42,0,0,1-13.18,9.9L1092.22,365.18h23.12m2.48-6h-40.14l363.86,362.08A27.19,27.19,0,0,0,1464,703.63L1117.82,359.18Z"
          transform="translate(-331.36 -331.31)"/>
    <path class="cls-1"
          d="M1075.21,365.18l352,350.26h-74.4l-352-350.26h74.4m2.47-6H986.27l364,362.26h88.14a28.46,28.46,0,0,0,3.08-.18L1077.68,359.18Z"
          transform="translate(-331.36 -331.31)"/>
</svg>